<?xml version="1.0" standalone="no"?>
<!DOCTYPE svg PUBLIC "-//W3C//DTD SVG 20010904//EN"
 "http://www.w3.org/TR/2001/REC-SVG-20010904/DTD/svg10.dtd">
<svg version="1.0" xmlns="http://www.w3.org/2000/svg"
 width="512.000000pt" height="512.000000pt" viewBox="0 0 512.000000 512.000000"
 preserveAspectRatio="xMidYMid meet">
<metadata>
Created by potrace 1.14, written by Peter Selinger 2001-2017
</metadata>
<g transform="translate(0.000000,512.000000) scale(0.100000,-0.100000)"
fill="#000000" stroke="none">
<path d="M1478 4770 c-27 -28 -28 -32 -28 -134 0 -87 -3 -106 -15 -106 -8 0
-29 -13 -46 -28 l-32 -29 -1 -414 c-1 -457 -1 -460 61 -489 l33 -15 0 -597 0
-598 -22 -5 c-300 -71 -503 -131 -618 -182 -30 -13 -57 -24 -60 -25 -31 -4
-251 -116 -341 -174 -79 -51 -184 -137 -237 -194 -44 -46 -132 -181 -132 -200
0 -9 -4 -20 -9 -25 -28 -32 -38 -206 -15 -280 53 -173 162 -303 371 -443 297
-200 729 -350 1258 -436 78 -13 238 -34 315 -41 30 -3 75 -7 100 -9 125 -12
334 -20 500 -20 177 0 468 10 520 18 14 2 54 7 90 10 911 89 1657 402 1877
787 57 100 77 182 70 284 -9 118 -42 201 -123 302 -140 175 -362 321 -679 447
-125 49 -435 146 -469 146 -9 0 -15 22 -18 70 -10 134 -92 250 -218 308 -45
21 -71 25 -145 26 -83 1 -96 -2 -157 -32 -42 -21 -83 -51 -111 -82 -44 -49
-87 -126 -87 -155 0 -13 -7 -15 -32 -11 -148 24 -763 25 -993 2 -16 -2 -66 -6
-110 -10 -44 -4 -107 -11 -140 -16 -84 -13 -176 -23 -205 -24 l-25 -1 0 585
c0 322 1 593 4 603 5 24 -60 0 810 298 63 21 124 46 137 54 71 46 82 142 24
204 -17 17 -31 31 -33 31 -3 0 -601 204 -777 265 -74 26 -142 49 -150 51 -12
4 -15 28 -15 134 0 118 -2 131 -21 151 -33 32 -73 32 -106 -1z"/>
</g>
</svg>
